<svg id="Layer_1" data-name="Layer 1" xmlns="http://www.w3.org/2000/svg" viewBox="0 0 131.9 38.73"><defs><style>.cls-1{fill:#fff;}</style></defs><path class="cls-1" d="M97.41,68.17a.09.09,0,0,1,.07,0c5.79,4.4,15.71,15.3,12.68,18.38a19.38,19.38,0,0,1-25.49,0c-3-3.08,6.89-14,12.68-18.38A.09.09,0,0,1,97.41,68.17Zm10.09-12.7a19.38,19.38,0,0,0-20.17,0,.06.06,0,0,0,0,.09s0,0,.09,0c3.75-.81,9.44,2.43,10,2.75l0,0,0,0c.54-.32,6.23-3.56,10-2.75,0,0,.08,0,.09,0A.06.06,0,0,0,107.5,55.47ZM83.86,58.19l-.09.07A19.36,19.36,0,0,0,82,83.73a.08.08,0,0,0,.1,0s0-.06,0-.1C80.66,79.1,88.21,68,92.1,63.4a.09.09,0,0,0,0-.06.06.06,0,0,0,0-.06C86.19,57.4,84.19,58,83.86,58.19Zm18.87,5.09a.06.06,0,0,0,0,.06.14.14,0,0,0,0,.06c3.9,4.63,11.45,15.7,10,20.26,0,0,0,.08,0,.1a.08.08,0,0,0,.1,0,19.36,19.36,0,0,0-1.76-25.47l-.09-.07C110.64,58,108.64,57.4,102.73,63.28Zm42.71,20.65h-4l-6.82-9.39-6.82,9.39h-4l8.81-12.12-8.11-11.16h4l6.13,8.44,6.13-8.44h4l-8.11,11.16ZM166,77.31a6.15,6.15,0,0,1-2,4.85,8.54,8.54,0,0,1-5.77,1.77H147.3V73.56h-5.19l2.16-3h3V60.65h10.46a8,8,0,0,1,5.42,1.67,5.62,5.62,0,0,1,1.88,4.4,5.43,5.43,0,0,1-3,5A6.18,6.18,0,0,1,165,74,5.73,5.73,0,0,1,166,77.31Zm-15.15-6.72h6.67a4.49,4.49,0,0,0,3-.89,3.43,3.43,0,0,0,1-2.69,3,3,0,0,0-1-2.42,4.56,4.56,0,0,0-3-.87h-6.67Zm11.56,6.65a3.41,3.41,0,0,0-1.1-2.76,5.07,5.07,0,0,0-3.3-.92h-7.16v7.3H158a5,5,0,0,0,3.27-.94A3.29,3.29,0,0,0,162.42,77.24Zm27.5-4.95a14.62,14.62,0,0,1-.78,4.91,11.11,11.11,0,0,1-2.33,3.88,10.19,10.19,0,0,1-3.63,2.53,13.15,13.15,0,0,1-9.25,0,9.91,9.91,0,0,1-3.6-2.53A11.08,11.08,0,0,1,168,77.22a15.94,15.94,0,0,1,0-9.85,11.25,11.25,0,0,1,2.35-3.9,10,10,0,0,1,3.6-2.51,13.3,13.3,0,0,1,9.25,0,10.26,10.26,0,0,1,3.63,2.51,11.2,11.2,0,0,1,2.33,3.9A14.72,14.72,0,0,1,189.92,72.29Zm-19,0A9.6,9.6,0,0,0,173,78.82a7.62,7.62,0,0,0,11.16,0h0a9.6,9.6,0,0,0,2.08-6.53,9.72,9.72,0,0,0-2.08-6.56,7.69,7.69,0,0,0-11.16,0A9.77,9.77,0,0,0,170.88,72.29Zm30.27-.48,8.11-11.16h-4l-6.13,8.44L193,60.65h-4l8.11,11.16-8.81,12.12h4l6.82-9.39L206,83.93h4Z" transform="translate(-78.05 -52.64)"/></svg>