<svg width="96" height="21" viewBox="0 0 96 21" fill="none" xmlns="http://www.w3.org/2000/svg">
<g id="SWITCH" clip-path="url(#clip0_1681_26857)">
<path id="Vector" d="M4.05702 6.86719C4.05702 7.9057 4.89893 8.74758 5.93744 8.74758C6.97594 8.74758 7.81785 7.9057 7.81785 6.86719C7.81785 5.82868 6.97599 4.98675 5.93744 4.98675C4.89889 4.98675 4.05702 5.82862 4.05702 6.86719ZM15.8151 0.867188H12.721C12.649 0.867188 12.5907 0.92543 12.5907 0.997537V20.7205C12.5907 20.8015 12.6563 20.8672 12.7373 20.8672H15.8151C18.6473 20.8672 20.9433 18.5712 20.9433 15.739V5.9954C20.9433 3.1632 18.6473 0.867188 15.8151 0.867188ZM16.5475 13.8893C15.4307 13.8893 14.5253 12.9839 14.5253 11.8672C14.5253 10.7504 15.4307 9.84509 16.5475 9.84509C17.6643 9.84509 18.5696 10.7504 18.5696 11.8672C18.5696 12.984 17.6642 13.8893 16.5475 13.8893ZM10.4429 0.867229H6.07153C3.23931 0.867229 0.943359 3.1632 0.943359 5.99542V15.739C0.943359 18.5712 3.23931 20.8672 6.07153 20.8672H10.4429C10.5241 20.8672 10.5897 20.8015 10.5897 20.7206V1.01372C10.5897 0.932812 10.5241 0.867229 10.4429 0.867229ZM8.97725 19.2549H6.07151C5.13221 19.2549 4.24936 18.8893 3.58554 18.2253C2.92142 17.5615 2.55584 16.6787 2.55584 15.739V5.9955C2.55584 5.05587 2.92142 4.17302 3.58521 3.50956C4.24921 2.84539 5.13221 2.47965 6.07151 2.47965H8.97725V19.2549ZM41.9303 3.15925L44.7175 6.91286H45.8255V1.30023H44.6865V4.98688L41.9258 1.30023H40.7921V6.91286H41.9303V3.15925ZM30.4399 13.9406C28.9097 13.6894 27.9217 13.4057 27.9217 12.6932C27.9217 11.8698 29.0219 11.5533 30.4985 11.5533C31.8713 11.5533 33.2479 12.0763 33.7391 12.2828L34.4917 10.4496C33.9586 10.2384 32.2668 9.63412 30.3907 9.63412C28.1026 9.63412 25.671 10.75 25.671 12.8179C25.671 14.4949 26.8539 15.3516 29.8897 15.8738C32.0299 16.2419 33.2086 16.4451 33.1753 17.3654C33.1563 17.872 32.7647 18.7223 30.3521 18.7223C28.4117 18.7223 27.0442 18.0188 26.5693 17.7332L25.567 19.5426C26.1013 19.8234 27.8937 20.6642 30.2 20.6642C33.5692 20.6642 35.3499 19.4969 35.3499 17.2885C35.3499 16.009 34.9179 14.6757 30.4399 13.9406ZM27.1821 3.15925L29.9697 6.91286H31.0776V1.30023H29.9386V4.98688L27.1779 1.30023H26.0443V6.91286H27.1821V3.15925ZM47.2525 17.4664L45.009 9.78316H43.1295L40.8985 17.4383L38.8617 9.78316H36.5561L39.5526 20.3731H42.0973L44.0721 13.396L46.0337 20.3731H48.589L51.6017 9.78316H49.2973L47.2525 17.4664ZM36.5589 1.30023H35.3098V6.91286H36.5589V1.30023ZM54.2327 20.3731H56.5893V9.78316H54.2327V20.3731ZM89.3113 1.1112C87.663 1.1112 86.3216 2.45486 86.3216 4.10654C86.3216 5.75821 87.663 7.10191 89.3113 7.10191C90.9595 7.10191 92.3006 5.75823 92.3006 4.10654C92.3006 2.45484 90.9596 1.1112 89.3113 1.1112ZM89.3113 5.85359C88.3494 5.85359 87.5673 5.06992 87.5673 4.10618C87.5673 3.14313 88.3494 2.35954 89.3113 2.35954C90.2731 2.35954 91.0549 3.14313 91.0549 4.10618C91.0549 5.06992 90.2728 5.85359 89.3113 5.85359ZM89.6938 13.9568H84.7475V9.78316H82.5574V20.3731H84.7475V16.1488H89.6938V20.3731H91.8855V9.78316H89.6938V13.9568ZM95.4543 18.9221L95.0888 19.9835L94.7233 18.9221H94.3207V20.3734H94.5801V19.2595L94.9591 20.3602L94.9637 20.3734H95.214L95.2185 20.3602L95.5975 19.2595V20.3734H95.8569V18.9221H95.4543ZM79.8059 1.30023H77.4852V6.91286H79.8059C81.397 6.91286 82.6915 5.654 82.6915 4.10637C82.6915 2.55874 81.397 1.30023 79.8059 1.30023ZM79.8627 5.73347H78.6378V2.47967H79.8627C80.7598 2.47967 81.4894 3.20917 81.4894 4.10637C81.4894 5.00357 80.7598 5.73347 79.8627 5.73347ZM92.813 19.2H93.2598V20.3734H93.5421V19.2H93.9781V18.9221H92.813V19.2ZM75.5062 11.792C76.7019 11.792 77.8166 12.4299 78.4133 13.4361L80.1366 11.9377C79.0823 10.3685 77.3406 9.43687 75.4445 9.43687C72.3277 9.43687 69.7917 11.9725 69.7917 15.0893C69.7917 18.2061 72.3277 20.7413 75.4445 20.7413C77.3406 20.7413 79.0823 19.8097 80.1366 18.2409L78.4133 16.7424C77.8166 17.7486 76.7015 18.3866 75.5062 18.3866C73.6539 18.3866 72.1468 16.9074 72.1468 15.0893C72.1468 13.2711 73.6539 11.792 75.5062 11.792ZM63.0518 5.87308H59.8261V4.55706H62.8089V3.54181H59.8261V2.3306H63.0518V1.30023L58.6871 1.30211V6.91286L63.0518 6.91098V5.87308ZM59.173 12.0304H62.5573V20.3731H64.8357V12.0304H68.1435V9.78316H59.173V12.0304ZM54.5778 1.30023H49.8233V2.49142H51.6173V6.91286H52.8247V2.49142H54.5778V1.30023ZM72.7367 6.91286V1.30023H71.5978V4.98688L68.837 1.30023H67.7034V6.91286H68.8412V3.15925L71.6288 6.91286H72.7367Z" fill="white"/>
</g>
<defs>
<clipPath id="clip0_1681_26857">
<rect width="94.9135" height="20" fill="white" transform="translate(0.943359 0.867188)"/>
</clipPath>
</defs>
</svg>
